<?xml version="1.0" encoding="UTF-8"?>
<svg id="Layer_1" data-name="Layer 1" xmlns="http://www.w3.org/2000/svg" viewBox="0 0 1000 1000">
  <defs>
    <style>
      .cls-1 {
        fill: #ad9662;
      }

      .cls-2 {
        fill: #362807;
      }
    </style>
  </defs>
  <polygon id="Path" class="cls-2" points="354.25 558.42 342.04 532.79 334.65 532.79 334.65 567.01 340.68 567.01 340.68 543.9 351.68 567.01 356.55 567.01 367.33 543.96 367.33 567.01 373.38 567.01 373.38 532.79 366.22 532.79 354.25 558.42"/>
  <polygon id="Path-2" data-name="Path" class="cls-2" points="394.18 532.79 379.34 567.01 385.82 567.01 397.03 540.24 401.79 551.58 395.85 551.58 394.04 556.83 404.01 556.83 408.29 567.01 415.09 567.01 400.16 532.79 394.18 532.79"/>
  <path id="Path-3" data-name="Path" class="cls-2" d="m428.99,556.77c0,3.42-2.18,5-6.86,5h-1.08v5.24h1.08c11.42,0,13.82-5.58,13.82-10.24v-23.98h-6.99l.03,23.98Z"/>
  <rect id="Rectangle" class="cls-2" x="447.86" y="532.79" width="5.96" height="34.22"/>
  <path id="Shape" class="cls-2" d="m479.74,532.79h-14v34.22h14c12.45,0,18.77-6.05,18.77-17.99,0-10.77-6.32-16.23-18.77-16.23m0,28.98h-7.34v-23.74h7.34c8.14,0,12.11,3.59,12.11,10.99,0,8.59-3.96,12.75-12.11,12.75"/>
  <polygon id="Path-4" data-name="Path" class="cls-2" points="537.19 532.79 522.34 567.01 528.84 567.01 540.04 540.24 544.8 551.58 538.86 551.58 537.05 556.83 547.02 556.83 551.3 567.01 558.1 567.01 543.17 532.79 537.19 532.79"/>
  <polygon id="Path-5" data-name="Path" class="cls-2" points="573.28 532.79 567.03 532.79 567.03 567.01 590.87 567.01 590.87 561.77 573.28 561.77 573.28 532.79"/>
  <polygon id="Path-6" data-name="Path" class="cls-2" points="620.66 567.01 626.91 567.01 626.91 552.3 643.67 552.3 643.67 547.05 626.91 547.05 626.91 538.02 644.49 538.02 644.49 532.79 620.66 532.79 620.66 567.01"/>
  <path id="Path-7" data-name="Path" class="cls-2" d="m676.98,553.46c0,5.7-2.75,8.35-8.65,8.35s-8.65-2.65-8.65-8.35v-20.66h-6.24v20.66c0,9,5.02,13.56,14.9,13.56s14.9-4.56,14.9-13.56v-20.66h-6.24v20.66Z"/>
  <polygon id="Path-8" data-name="Path" class="cls-2" points="692.16 538.02 702.5 538.02 702.5 567.01 708.62 567.01 708.62 538.02 718.98 538.02 718.98 532.79 692.16 532.79 692.16 538.02"/>
  <polygon id="Path-9" data-name="Path" class="cls-2" points="727.91 538.02 738.25 538.02 738.25 567.01 744.38 567.01 744.38 538.02 754.73 538.02 754.73 532.79 727.91 532.79 727.91 538.02"/>
  <polygon id="Path-10" data-name="Path" class="cls-2" points="772.54 532.79 757.71 567.01 764.19 567.01 775.39 540.24 780.17 551.58 774.23 551.58 772.41 556.83 782.37 556.83 786.66 567.01 793.46 567.01 778.53 532.79 772.54 532.79"/>
  <rect id="Rectangle-2" data-name="Rectangle" class="cls-2" x="802.39" y="532.79" width="5.96" height="34.22"/>
  <polygon id="Path-11" data-name="Path" class="cls-2" points="839.87 558.42 827.66 532.79 820.27 532.79 820.27 567.01 826.3 567.01 826.3 543.9 837.28 567.01 842.18 567.01 852.97 543.96 852.97 567.01 859 567.01 859 532.79 851.83 532.79 839.87 558.42"/>
  <rect id="Rectangle-3" data-name="Rectangle" class="cls-2" x="403.17" y="512.83" width="5.96" height="5.7"/>
  <rect id="Rectangle-4" data-name="Rectangle" class="cls-2" x="415.09" y="512.83" width="5.96" height="5.7"/>
  <rect id="Rectangle-5" data-name="Rectangle" class="cls-2" x="552.14" y="461.5" width="5.96" height="5.7"/>
  <path id="Shape-2" data-name="Shape" class="cls-2" d="m626.62,496.95v-29.74h-6.31v27.82c.15,1.86-.13,3.72-.82,5.45-.7,1.37-2.14,2.04-4.4,2.04h-49.24c-1.39,0-2.78-.21-4.1-.62,2.12-1.26,3.9-3,5.19-5.07,1.56-2.46,2.39-5.3,2.38-8.2.09-3.49-1.21-6.89-3.62-9.46-6.01-5.64-15.48-5.64-21.48,0-2.45,2.56-3.77,5.97-3.68,9.48.03,5.4,2.88,10.41,7.55,13.27-1.32.42-2.7.63-4.09.62h-40.09v-1.86c0-14.38-5.37-21.68-15.95-21.68-7.32,0-14.71,5.18-19.37,13.24l.87-24.89h-6.46v35.25h-41.77c.52-1.8.77-3.66.73-5.53v-18.07h-6.29v16.03c.13,1.87-.15,3.74-.81,5.5-.71,1.34-2.16,2-4.43,2h-19.18c-2.58.16-5.12-.7-7.06-2.39-1.93-1.69-3.09-4.07-3.23-6.6-.95-9.14-5.96-14.47-13.76-14.47h-18.28c-9.47,0-14.27,6-14.27,17.87v21.6h6.21v-21.42c0-7.83,2.98-12.49,7.98-12.49h6.49c-1.8,2.69-2.71,5.85-2.63,9.07,0,8.97,5.5,14.76,13.98,14.76,4.63.26,9.04-2.01,11.45-5.9,2.44,4.04,6.93,6.09,13.4,6.09h148.65c2.47.06,4.94-.06,7.39-.37,2.56-.54,5.02-1.48,7.28-2.79,2.23,1.31,4.66,2.25,7.19,2.79,2.43.31,4.88.43,7.33.37h46.99c4.66,0,10.11-2.03,10.11-11.69m-71.57-16.52c2.16-.11,4.26.7,5.76,2.22,1.35,1.41,2.06,3.29,1.99,5.23-.04,2.11-.74,4.16-2.02,5.87-1.41,2.02-3.37,3.6-5.65,4.57-2.34-.94-4.36-2.53-5.79-4.57-1.27-1.71-1.95-3.77-1.94-5.88-.1-2.01.68-3.96,2.15-5.37,1.46-1.41,3.47-2.14,5.51-2m-57.39,19.12c0,.93,0,1.9-.11,2.89h-28.56c3.22-9.6,11.77-17.78,18.83-17.78,6.07,0,9.85,5.7,9.85,14.89m-130.71,2.96c-4.22,0-6.76-3.2-6.76-8.59,0-5.84,2.55-9.14,6.99-9.14,4.13,0,6.49,3.05,6.49,8.53,0,8.29-3.84,9.25-6.73,9.25"/>
  <rect id="Rectangle-6" data-name="Rectangle" class="cls-2" x="638.54" y="467.21" width="5.96" height="39.92"/>
  <path id="Path-12" data-name="Path" class="cls-2" d="m754.73,500.37c0-12.68-8.38-20.87-21.33-20.87-6.99,0-12.35,2.21-16.05,6.57l-.54.63.6.58c2.01,1.87,3.09,2.92,3.72,3.58l.86.92.68-1.05c2.3-3.61,5.83-5.35,10.8-5.35,9.17,0,14.21,5.21,14.21,14.62v1.2h-57.56c-.93-14.99-8.13-22.59-21.45-22.59h-.96v5.7h2.56c4.36,0,8.4,2.15,10.66,5.67,1.97,3.44,2.96,7.3,2.87,11.22h-24.43v5.92h95.34v-6.76Z"/>
  <rect id="Rectangle-7" data-name="Rectangle" class="cls-2" x="730.89" y="512.83" width="5.96" height="5.7"/>
  <path id="Shape-3" data-name="Shape" class="cls-2" d="m772.93,507.61h61.2c2.55,3.47,6.76,5.43,11.16,5.2,3.9.14,7.64-1.45,10.16-4.32,2.42-2.85,3.68-6.46,3.54-10.15.17-3.69-1.05-7.31-3.43-10.21-2.57-2.81-6.32-4.35-10.21-4.17-3.89-.17-7.65,1.34-10.27,4.11-2.56,2.89-3.9,6.6-3.76,10.4,0,1.07.1,2.13.31,3.18h-57.65c-1.13-.05-2.18-.6-2.85-1.49-.85-1.67-1.22-3.54-1.06-5.39v-27.57h-6.37v30.01c-.21,2.9.85,5.76,2.93,7.87,1.65,1.64,3.93,2.56,6.3,2.53m72.36-.42c-2.1.12-4.11-.83-5.3-2.51-1.16-1.81-1.72-3.91-1.63-6.03-.12-2.24.45-4.47,1.63-6.4,1.2-1.82,3.32-2.87,5.54-2.75,2.04-.12,3.99.83,5.1,2.5,1.06,1.81,1.56,3.87,1.46,5.94,0,6.24-2.22,9.27-6.8,9.27"/>
  <path id="Shape-4" data-name="Shape" class="cls-1" d="m217.8,436.09c-3.83,1.2-7.49,2.85-10.89,4.92-18.95,11.14-27.44,31.6-28.24,51.41v3.37h0v71.22h24.66v-70.36c-.01-4.26,1.99-8.31,5.46-11.03l9.73,11.03,9.73-11.03c3.47,2.72,5.47,6.77,5.46,11.03v70.35h24.64v-70.35c0-12.48-6.55-24.15-17.47-31.16-10.92-7.01-24.81-8.45-37.09-3.85h0c5.05-5.61,12.67-8.38,21.02-8.54h0c2.67-.06,5.33.14,7.95.59,21.82,3.38,38.43,20.66,38.53,41.52v71.8h24.63v-69.98c0-30.31-19.26-54.61-52.1-61.85-1.21-.25-3.14-.61-4.8-.83-2.48-.34-4.99-.53-7.5-.56-4.66,0-9.29.79-13.66,2.31m-4.71-3.11c-42.51,0-72.16,27.08-72.16,62.99v71.03h24.52v-71.08c0-33.41,26.81-57.24,53.7-62.4,1.1-.22,2.38-.55,1.11-.55h-7.17Z"/>
</svg>